<?xml version="1.0" encoding="utf-8"?>
<!-- Uploaded to: SVG Repo, www.svgrepo.com, Generator: SVG Repo Mixer Tools -->
<svg width="800px" height="800px" viewBox="-145.82 0 442.537 442.537" xmlns="http://www.w3.org/2000/svg"><defs><style>.a{fill:#ffffff;}.b{fill:#7a7473;}.c{fill:#211715;}.d{fill:#b3b3b3;}.e{fill:#85807f;}.f{fill:#3d8dcc;}</style></defs><path class="a" d="M52.839,68.522a33.82,33.82,0,0,0,5.672,9.8,25.318,25.318,0,0,0,9.162,7.316c-.1,1.139-.256,2.224-.458,3.4-.368,2.034-.245,3.847-3.075,4.87-.184.067-9.126,4.251-9.678,4.434,0,0,1.978,14.746,23.237,14.746s27.892-15.181,27.892-15.181c-.288-.116-8.306-3.932-8.489-4-2.83-1.023-2.72-2.836-3.075-4.87-.228-1.3-.4-2.588-.5-3.892,6.794-3.607,12.164-12.856,13.136-15.494a29.062,29.062,0,0,0,1.315-3.569l.367.062a4.958,4.958,0,0,0,3.822-1.1,13.586,13.586,0,0,0,3.988-6.469c.855-2.518.909-6.589-.365-8.8a4.173,4.173,0,0,0-3.748-2.082,4.494,4.494,0,0,0-3.251,1.19s6.763-27.305-28.766-27.305c-32.171,0-28.765,27.305-28.765,27.305a4.5,4.5,0,0,0-3.251-1.19,4.173,4.173,0,0,0-3.749,2.082c-1.274,2.209-1.22,6.28-.365,8.8a13.6,13.6,0,0,0,3.989,6.469,4.864,4.864,0,0,0,4.135,1.036C52.253,66.862,52.523,67.68,52.839,68.522Z"/><path class="a" d="M80.063,96.158h-.991c-2.194,2.468-6.781,8.835-7.888,10.311-3.449-2.209-8.543-10.324-9.154-11.48,3.994,15.964,15.2,53.422,17.918,60.891,2.533-4.385,14.043-44.467,18.092-60.916-.547,1.056-5.692,9.279-9.167,11.5-1.108-1.476-5.7-7.843-7.889-10.311Z"/><path class="b" d="M103.35,433.53c-2.916-2.391-5.716-4.785-9.008-7.219-1.633-1.207-3.665-2.043-5.216-3.354a9.14,9.14,0,0,1-2.1-2.8c-1.831-3.487-1.669-9.993-.972-13.87,0,0,.072-.4.2-1.092,4.525.519,10.178.776,14.21.817a53.518,53.518,0,0,0,9.745-.953L112,407.882c1.3,1.46,3.729,4.377,5.136,5.735,4.2,4.048,5.707,5.969,8.76,9.354,2.346,2.6,4.405,7.819,3.811,11.482-.458,2.826-3.175,4.373-5.823,5.46a21.251,21.251,0,0,1-7.721.4,20.909,20.909,0,0,1-9.093-3.813C105.78,435.506,104.555,434.518,103.35,433.53Z"/><path class="b" d="M58.891,433.321c2.9-2.267,5.635-4.568,9.84-6.242,2.152-.857,4.405-1.178,6.054-2.805a8.684,8.684,0,0,0,2.046-4.091,33.481,33.481,0,0,0,.132-13.561s-.117-.57-.3-1.512a146.162,146.162,0,0,1-14.97.9,54.759,54.759,0,0,1-10.7-1.131l-3.1,4.929L34.212,425.084c-6.726,6.9-4.421,13.873,3.382,15.131a21.378,21.378,0,0,0,12.1-1.815,29.748,29.748,0,0,0,6.775-3.255C57.309,434.548,58.106,433.936,58.891,433.321Z"/><path class="c" d="M108.476,406.073c2.636,4.9,7.144,8.659,10.9,12.645,3.814,4.043,9.068,8.944,8.4,15.093-.26,2.4-3.212,4.006-5.369,4.419a17.92,17.92,0,0,1-8.434-.5c-3.644-1.08-6.413-3.321-9.306-5.695-3.17-2.6-6.273-5.359-9.651-7.691-1.589-1.1-3.536-1.82-4.907-3.205a8.524,8.524,0,0,1-2.093-4.185,26.5,26.5,0,0,1-.039-10.134,2.057,2.057,0,0,0-1.4-2.46,2.016,2.016,0,0,0-2.46,1.4c-1.172,6.76-1.238,15.56,5.146,19.774,1.749,1.154,3.566,2.11,5.239,3.387,1.778,1.358,3.5,2.783,5.227,4.208,3.245,2.683,6.445,5.735,10.351,7.422,6.016,2.6,14.4,3.244,19.451-1.758,2.733-2.707,2.6-6.654,1.583-10.11-1.053-3.589-3.058-6.259-5.494-9.01-2.494-2.816-5.151-5.435-7.749-8.149a36.209,36.209,0,0,1-5.948-7.47c-1.22-2.267-4.675-.25-3.454,2.019Z"/><path class="c" d="M75.034,407.154a31.7,31.7,0,0,1,.043,11.54,8.183,8.183,0,0,1-1.483,3.929c-1.029,1.251-2.792,1.619-4.25,2.113a31.033,31.033,0,0,0-8.58,4.62c-2.608,1.945-5.03,4.184-7.978,5.617-3.265,1.587-6.971,3.116-10.617,3.413-2.7.222-6,.064-8.207-1.738-5.041-4.12,1.823-10.2,4.538-13.239,2.921-3.267,5.787-6.582,8.711-9.846a40.4,40.4,0,0,0,5.311-7.672c1.229-2.263-2.224-4.285-3.454-2.019a38.63,38.63,0,0,1-5.155,7.387c-2.872,3.206-5.675,6.473-8.555,9.671-2.6,2.893-5.6,5.545-6.711,9.421a8.873,8.873,0,0,0,1.606,8.224c2.139,2.562,5.511,3.537,8.716,3.809,4.36.371,8.3-.9,12.294-2.453a30.662,30.662,0,0,0,5.664-2.688c1.473-.954,2.839-2.083,4.216-3.166a31.579,31.579,0,0,1,9.073-5.418c2.007-.69,4.056-1.265,5.686-2.7a9.772,9.772,0,0,0,2.822-5.088,35.858,35.858,0,0,0,.167-14.784c-.5-2.523-4.352-1.455-3.857,1.064Z"/><path class="d" d="M81.232,211.713a.715.715,0,0,0-1.407.038,90.258,90.258,0,0,1-1.989,9.781,17.916,17.916,0,0,1-6.8,9.5c-2.34,1.733-7.074,3.627-12.437,4.457a106.659,106.659,0,0,1-19.078.7c.087,2.144.506,13,.506,13,2.217,53.845,3.4,102.324,5.509,154.331a58.681,58.681,0,0,0,16.16,2.493c5.846-.057,15.115-.569,19.393-1.675,4.282,1.107,13.531,1.621,19.374,1.68a58.854,58.854,0,0,0,16.156-2.5c2.107-51.876,3.282-100.237,5.5-153.919l.517-13.781s0-.045.008-.134c-7.14.432-16.337.732-21.715-.146-4.806-.784-8.089-1.691-11.13-4.249a19.344,19.344,0,0,1-6.426-9.345A98.839,98.839,0,0,1,81.232,211.713Z"/><path class="c" d="M106.6,63.44a28.935,28.935,0,0,1-1.31,4.367c-.193.508-.355.841-.584,1.41-.2.507.137-.275-.036.087-.063.132-.122.265-.185.4a37.048,37.048,0,0,1-3.2,5.326c-2.785,3.947-6.6,8.256-11.493,9.407-2.505.589-1.444,4.446,1.063,3.857,5.778-1.358,10.225-6.183,13.572-10.809a38.005,38.005,0,0,0,3.477-5.691c.207-.427.392-.862.575-1.3.217-.518-.147.343.081-.187.15-.347.3-.694.436-1.045a28.971,28.971,0,0,0,1.461-4.756c.524-2.512-3.331-3.586-3.857-1.063Z"/><path class="c" d="M49.522,64.4C52,75.284,60.193,87.15,71.955,88.924a2.064,2.064,0,0,0,2.46-1.4,2.014,2.014,0,0,0-1.4-2.46C62.548,83.488,55.582,73,53.379,63.337c-.572-2.508-4.43-1.447-3.857,1.064Z"/><path class="c" d="M74.418,73.64a12.287,12.287,0,0,0,5.914,1.379,9.734,9.734,0,0,0,6.074-1.836,2,2,0,0,0,0-2.829,2.062,2.062,0,0,0-2.828,0c.69-.537-.037,0-.256.111-.169.089-.626.23,0,.02-.161.054-.318.123-.481.175-.2.066-.413.122-.623.171a4.509,4.509,0,0,0-.725.137c.2-.089.317-.038.014-.008-.132.013-.265.024-.4.032-.319.021-.638.029-.958.027-.286,0-.572-.011-.857-.031-.132-.009-.262-.019-.393-.032l-.224-.025c-.156-.019-.1-.011.176.023-.113.055-.519-.092-.645-.12q-.309-.069-.614-.159c-.176-.053-.348-.116-.522-.176-.453-.155.415.2,0,.006q-.324-.153-.64-.319a2,2,0,1,0-2.019,3.454Z"/><path class="c" d="M79.073,60.022a26.448,26.448,0,0,1,.623,2.852l-.071-.532a1.732,1.732,0,0,1,.01.394l.072-.531a1,1,0,0,1-.044.177l.2-.478a.742.742,0,0,1-.062.114l.312-.405a.578.578,0,0,1-.093.092l.405-.313a1.876,1.876,0,0,1-.226.12l.478-.2a1.646,1.646,0,0,1-.381.111l.532-.071a1.531,1.531,0,0,1-.358,0L81,61.42c-.135-.018-.267-.051-.4-.069a2.244,2.244,0,0,0-1.541.2,2,2,0,0,0-.718,2.737,1.921,1.921,0,0,0,1.2.919c.354.048.7.136,1.059.152a3.468,3.468,0,0,0,1.622-.395,2.455,2.455,0,0,0,1.327-1.606,3.811,3.811,0,0,0-.013-1.67c-.156-.919-.368-1.829-.6-2.731a2.068,2.068,0,0,0-.919-1.2,2,2,0,0,0-2.737.718,2.1,2.1,0,0,0-.2,1.541Z"/><path class="c" d="M64.509,51.8c-.477,1.548-.166,5.109,2.766,5.412,3.876-.023,4.083-4.328,2.778-6.353C68.985,49.2,65.843,48.514,64.509,51.8Z"/><path class="c" d="M95.548,51.8c.476,1.548.166,5.109-2.767,5.412C88.905,57.19,88.7,52.884,90,50.86,91.072,49.2,94.213,48.514,95.548,51.8Z"/><path class="e" d="M105.559,44.142a24.005,24.005,0,0,0-2.872-6.637c-2.459-3.331-3.4-4.326-8.293-5.451L77.812,29.56a58.975,58.975,0,0,0-11.374-.375,7.823,7.823,0,0,0-4.3,1.5c-1.578,1.329-2.128,3.513-3.05,5.381-1.6,3.243-5.372,4.917-5.97,8.55a48.842,48.842,0,0,0-.565,5.165l-1.285-.9a4.5,4.5,0,0,0-3.251-1.19,5.236,5.236,0,0,0-1.715.33,44.458,44.458,0,0,1-1.4-11.38c-.238-8.479,2.952-17.028,6.95-20.941a31.934,31.934,0,0,1,6.167-6.423A35.361,35.361,0,0,1,79.9,2.085c7.8,0,15.716,1.835,21.671,8.47l4.594,4.083a25.751,25.751,0,0,1,4.948,5.806c2.329,3.856,3.564,8.707,3.88,16.2a36.911,36.911,0,0,1-1.356,11.337,5.26,5.26,0,0,0-1.593-.287,4.494,4.494,0,0,0-3.251,1.19Z"/><path class="c" d="M52.677,47.469a6.9,6.9,0,0,0-7.517-1.122,6.564,6.564,0,0,0-3.435,4.418,16.5,16.5,0,0,0,2.4,13.022c1.689,2.513,4.355,4.777,7.588,4.358a2.066,2.066,0,0,0,2-2,2.012,2.012,0,0,0-2-2c-2.279.3-3.771-1.589-4.759-3.412a13.23,13.23,0,0,1-1.616-5.024,8.619,8.619,0,0,1,.864-5.252c-.317.5.513-.448.235-.243a2.04,2.04,0,0,1,.967-.441,2.7,2.7,0,0,1,2.448.524c1.916,1.709,4.754-1.11,2.829-2.828Z"/><path class="c" d="M110.208,50.3a2.674,2.674,0,0,1,2.317-.552,2.142,2.142,0,0,1,1.1.469c-.276-.2.544.732.235.243a5.288,5.288,0,0,1,.786,2.12,12.063,12.063,0,0,1,.078,3.132,13.252,13.252,0,0,1-1.615,5.024c-.988,1.822-2.48,3.708-4.759,3.412a2.01,2.01,0,0,0-2,2,2.051,2.051,0,0,0,2,2c5.264.683,8.5-5,9.81-9.26,1.179-3.814,1.131-9.738-2.6-12.18a6.864,6.864,0,0,0-8.178.764c-1.925,1.717.912,4.538,2.828,2.828Z"/><path class="c" d="M102.986,9.141C94.592-.055,80.47-1.761,68.94,1.578a36.622,36.622,0,0,0-24.4,23.333,43.763,43.763,0,0,0-.283,23.21c.629,2.495,4.487,1.438,3.857-1.063a40.508,40.508,0,0,1-.38-18.631,29.138,29.138,0,0,1,2.905-7.749,35.624,35.624,0,0,1,4.445-5.862C62.411,6.49,73.542,3.161,84.428,4.313a24.354,24.354,0,0,1,15.73,7.656c1.739,1.906,4.561-.929,2.828-2.828Z"/><path class="c" d="M115.66,48.121a45.154,45.154,0,0,0,0-21.773,26.307,26.307,0,0,0-8.083-13.124c-1.9-1.729-4.737,1.092-2.828,2.829a22.529,22.529,0,0,1,7.054,11.358,40.735,40.735,0,0,1,0,19.647c-.609,2.5,3.247,3.567,3.857,1.063Z"/><path class="c" d="M78.344,27.631a50.8,50.8,0,0,0-9.727-.558c-3.633.074-7.269.676-9.372,3.969-.982,1.537-1.385,3.369-2.393,4.89A36.959,36.959,0,0,1,53.64,39.51a9.885,9.885,0,0,0-2.456,4.576,57.224,57.224,0,0,0-.685,6.333c-.2,2.567,3.8,2.554,4,0a46.472,46.472,0,0,1,.542-5.269,6.624,6.624,0,0,1,1.868-3.3,38.54,38.54,0,0,0,3.11-3.49,28.749,28.749,0,0,0,2.15-4.343,4.39,4.39,0,0,1,3.269-2.666,18.176,18.176,0,0,1,3.779-.288,46.631,46.631,0,0,1,8.064.424,2.058,2.058,0,0,0,2.46-1.4,2.017,2.017,0,0,0-1.4-2.46Z"/><path class="c" d="M93.863,33.982c.8.187,1.605.387,2.39.641a2.92,2.92,0,0,1,.946.342c-.252-.108-.309-.133-.173-.073.059.026.118.052.176.08q.225.1.444.22.337.18.656.391a1.262,1.262,0,0,1,.327.229c-.251-.373-.206-.17-.049-.031a12.694,12.694,0,0,1,1.172,1.182c.2.238.4.485.593.728-.333-.411-.008-.011.044.058l.327.436a12.373,12.373,0,0,1,1.032,1.614c.181.343.349.692.508,1.046.049.109.1.219.145.329-.068-.164-.075-.18-.02-.046q.131.316.254.635c.369.957.693,1.93,1,2.91a2,2,0,0,0,3.857-1.063,33.786,33.786,0,0,0-2.286-5.83,20.327,20.327,0,0,0-2.621-3.645,10.289,10.289,0,0,0-2.916-2.4,19.264,19.264,0,0,0-4.739-1.613,2,2,0,0,0-1.063,3.857Z"/><path class="c" d="M89.312,29.69a9.48,9.48,0,0,0-3.578-4.939,18.013,18.013,0,0,0-8.929-3.512,2,2,0,0,0-2,2,2.063,2.063,0,0,0,2,2c-.451-.06.178.032.266.047q.3.051.6.112.495.1.982.232.544.146,1.076.327c.147.05.794.18.863.323q-.372-.159-.067-.027l.133.06c.154.07.305.142.456.217.27.135.536.277.8.429s.493.3.732.456q.186.123.368.254c.136.1.332.363-.008-.015.326.363.775.645,1.121,1,.148.151.292.307.43.467.077.089.148.183.226.271.1.111-.309-.438-.05-.059a8.167,8.167,0,0,1,.585.964c.034.07.06.146.1.212-.3-.521-.146-.385-.091-.205.045.151.1.3.133.451a2.019,2.019,0,0,0,2.461,1.4,2.044,2.044,0,0,0,1.4-2.46Z"/><path class="c" d="M54.994,100.271c.9-.314,1.766-.765,2.628-1.16q2-.914,3.986-1.84c1.043-.483,2.085-.969,3.129-1.45.108-.049.218-.095.325-.148.089-.044.272-.119-.16.066-.517.221-.059.032.074-.021.256-.1.513-.207.762-.327a5.55,5.55,0,0,0,2.469-2.283,8.788,8.788,0,0,0,.837-2.935c.234-1.51.493-3.011.63-4.534a2.008,2.008,0,0,0-2-2,2.053,2.053,0,0,0-2,2,38.4,38.4,0,0,1-.924,5.491c-.06.248.194-.3.035-.1a1.719,1.719,0,0,0-.136.241c-.222.39.166-.107-.081.106a2.571,2.571,0,0,0-.22.212c.216-.247.136-.086.015-.013-.1.062-.2.128-.3.187-.038.022-.453.23-.293.158-.144.065-.7.288-1.022.436-2.22,1.02-4.433,2.058-6.654,3.078q-.864.4-1.73.789l-.55.245c-.454.2.494-.184.12-.053a2.05,2.05,0,0,0-1.4,2.46,2.018,2.018,0,0,0,2.46,1.4Z"/><path class="c" d="M91.555,85.474c.129,1.421.335,2.83.567,4.238a16.445,16.445,0,0,0,.409,2.193,5.508,5.508,0,0,0,1.5,2.486,6.2,6.2,0,0,0,1.34.938,10.808,10.808,0,0,0,1,.435c.655.251-.46-.225-.21-.1,1.971,1.012,4.02,1.9,6.023,2.845.952.45,1.9.917,2.869,1.324a2,2,0,0,0,2.46-1.4,2.063,2.063,0,0,0-1.4-2.46c1,.417.061.01-.172-.1l-1.287-.607-3.48-1.647c-.9-.425-1.794-.851-2.693-1.271-.1-.045-.194-.092-.293-.135l-.074-.034c-.145-.064-.337-.144-.484-.2-.048-.02-.37-.164-.079-.027-.187-.088-.365-.186-.542-.291-.056-.032-.347-.227-.124-.069.2.14,0,0-.031-.032-.145-.144-.391-.471-.149-.105-.107-.162-.191-.34-.3-.5-.118-.176.1.168.074.186,0,0-.118-.348-.123-.364-.049-.166-.089-.335-.125-.5-.084-.4-.138-.8-.2-1.207-.2-1.316-.373-2.3-.49-3.594a2,2,0,1,0-4,0Z"/><path class="d" d="M148.424,167.642c-2.4-15.741-5.1-26.644-9.124-45.774-1.342-6.377-3.919-11.754-8.79-15.683a53.426,53.426,0,0,0-5.7-3.52c-4.8-2.444-16.015-6.217-20.42-7.912l-2.469-.95c-1.125-.835-2.194-1.57-3.1-2.148-2.829,12.56-14.418,53.415-18.187,62.717H79.42c-3.7-10.877-15.358-50.157-18.187-62.717a56.732,56.732,0,0,0-7.982,6.222,128.4,128.4,0,0,0-24.2,11.65L7.6,143.737c.623,8.148.631,14.044,1.718,25.945a43.22,43.22,0,0,0,1.514,9.166c2.044,6.463,7.7,11.954,14.435,12.661a21.66,21.66,0,0,0,12.308-1.928l.881-.415c-.594,5.538-1.19,11.912-1.767,18.372-1.311,11.78-1.907,18.27-2.618,26.86a1.371,1.371,0,0,0,1.223,1.477,108.227,108.227,0,0,0,23.3-.385c5.363-.83,10.1-2.724,12.437-4.457a17.916,17.916,0,0,0,6.8-9.5,90.258,90.258,0,0,0,1.989-9.781.715.715,0,0,1,1.413,0,98.454,98.454,0,0,0,2.126,10.2,19.344,19.344,0,0,0,6.426,9.345c3.041,2.558,6.324,3.465,11.13,4.249,6.879,1.123,20.008.318,27.085-.223a1.249,1.249,0,0,0,1.152-1.345c-.55-7.335-1.291-15.154-2.271-24.573,0,0-.52-5.405-1.031-10.71,4.053-1.8,8.2-3.818,12.255-6.036,4.118-2.253,8.291-7.651,9.578-10.567,1.369-3.1,1.353-8.367.736-14.445"/><path class="c" d="M123.915,198.653c.74,9.411,1.842,18.789,2.661,28.194q.225,2.59.43,5.185.047.583.09,1.167a7.3,7.3,0,0,0,.059.774c-.018-.008.69-.465.445-.62-.295-.185-1.524.112-1.888.137-3.02.211-6.043.384-9.068.5-5.95.218-12.01.37-17.866-.863a16.991,16.991,0,0,1-8.038-3.641,17.806,17.806,0,0,1-5.324-7.691,63.562,63.562,0,0,1-2.021-9.2c-.3-1.709-.86-3.516-2.975-3.44-2.151.076-2.5,2.031-2.8,3.731a48.955,48.955,0,0,1-2.142,9.343,16.052,16.052,0,0,1-5.561,7.154C64.887,233.024,58,233.8,51.973,234.137c-3.405.192-6.821.232-10.23.134-1.637-.046-3.273-.126-4.905-.257a3.741,3.741,0,0,0-1.039-.092c-.311.09-.05-.037.1.161.36.484.122.3.209-.037a14.35,14.35,0,0,0,.189-2.268q.774-9.174,1.747-18.328.315-2.955.644-5.907a2.012,2.012,0,0,0-2-2,2.047,2.047,0,0,0-2,2c-.691,6.226-1.345,12.456-1.909,18.7-.242,2.688-.7,5.465-.7,8.164-.008,3.852,4.393,3.623,7.146,3.767a101.713,101.713,0,0,0,18.448-.545c6.07-.795,12.4-2.615,16.9-6.972a20.137,20.137,0,0,0,5.192-8.589c.389-1.27.655-2.581.923-3.881q.317-1.529.591-3.065a11.5,11.5,0,0,1,.485-2.776l-.717.717-1.3-.139-.514-.883a24.8,24.8,0,0,1,.6,3.212q.3,1.6.637,3.19a39.06,39.06,0,0,0,1.161,4.6,21.855,21.855,0,0,0,6.594,9.535c5.515,4.7,13.275,5.4,20.245,5.516,3.716.064,7.434-.052,11.145-.234q2.584-.128,5.166-.3c1.589-.106,3.731.088,5.06-.884,1.822-1.333,1.25-3.69,1.095-5.619q-.243-3.03-.516-6.056-.612-6.822-1.324-13.633c-.436-4.233-.839-8.467-1.173-12.709-.2-2.55-4.2-2.571-4,0Z"/><path class="f" d="M76.486,145.216c-1.178-3.792-2.527-8.231-3.931-12.931,1.531-10.792,3.179-22.239,3.169-22.837a12.133,12.133,0,0,0-.707-3.372,18.661,18.661,0,0,0-.895-2.91s-.075-.152-.2-.4c1.75-2.359,3.865-5.155,5.154-6.605h1.912c1.29,1.451,3.407,4.25,5.158,6.61-.016.048-.023.073-.023.073-.365,1.5-.422,2.225-.736,3.64-.058.285-.124.569-.2.854a8.465,8.465,0,0,0-.292,1.9c0,.362,1.621,12.852,2.816,23.137-2.9,9.787-5.59,18.335-7.074,22H79.42C78.7,152.258,77.683,149.071,76.486,145.216Z"/><path class="c" d="M38.689,207.538c.51-5.705,1.034-11.409,1.632-17.106.255-2.428.523-4.856.821-7.279.309-2.507.3-5.083.367-7.607.292-10.588-.023-21.183-.59-31.756-.349-6.508-.793-13.009-1.261-19.509-.184-2.552-4.186-2.572-4,0,.8,11.136,1.54,22.282,1.833,33.444.137,5.222.174,10.446.07,15.668q-.078,3.873-.262,7.742c-.116,2.392-.49,4.775-.749,7.156-.7,6.408-1.287,12.827-1.861,19.247a2.016,2.016,0,0,0,2,2,2.041,2.041,0,0,0,2-2Z"/><path class="c" d="M5.6,143.737c.678,8.956.951,17.93,1.8,26.875.5,5.219,1.338,10.415,4.491,14.756a19.507,19.507,0,0,0,11.064,7.769,24.23,24.23,0,0,0,15.626-1.829,2.015,2.015,0,0,0,.717-2.736,2.046,2.046,0,0,0-2.736-.718,20.08,20.08,0,0,1-11.84,1.573,15.235,15.235,0,0,1-9.589-6.376c-2.782-3.983-3.385-8.642-3.819-13.369q-.621-6.762-.987-13.543c-.23-4.135-.418-8.272-.731-12.4-.193-2.551-4.195-2.572-4,0Z"/><path class="a" d="M66.867,86.589c-1.252,1.4-2.8,3.454-4.022,4.873A3.884,3.884,0,0,0,62,94.938c.471.94,5.676,9.285,9.181,11.531,1.107-1.476,5.694-7.843,7.888-10.311C78.25,95.575,67.4,87.019,66.867,86.589Z"/><path class="a" d="M93.189,86.589c1.253,1.4,2.8,3.454,4.022,4.873a3.881,3.881,0,0,1,.842,3.476c-.471.94-5.675,9.285-9.18,11.531-1.108-1.476-5.7-7.843-7.889-10.311C81.807,95.575,92.657,87.019,93.189,86.589Z"/><path class="c" d="M71.838,150.671c-4.3-7.461-8.57-14.946-12.717-22.5q-3.048-5.549-6-11.151-.744-1.419-1.48-2.843c-.183-.355-.416-1.164-.725-1.41q-.193-.505-.129.228c.19-.193.378-.39.562-.589,1.547-1.617,3.161-3.164,4.792-4.7a2.018,2.018,0,0,0-.405-3.141c-1.712-.977-3.531-1.869-5.162-2.975l.717.718-.166-.257.273,1.009c-.021.486.116-.04.236-.239.151-.25.314-.5.485-.734a14.682,14.682,0,0,1,1.014-1.228,34.5,34.5,0,0,1,2.979-2.9,52.859,52.859,0,0,1,6.126-4.59l-2.938-1.2c1.8,7.951,4.1,15.8,6.349,23.636q4.077,14.236,8.43,28.395c1.1,3.572,2.207,7.145,3.408,10.686.822,2.424,4.687,1.384,3.857-1.064-2.515-7.413-4.731-14.934-6.968-22.434-2.849-9.549-5.637-19.118-8.257-28.732C65.079,98.84,64.038,95,63.162,91.123a2.015,2.015,0,0,0-2.938-1.2,49.614,49.614,0,0,0-9.8,7.984c-1.155,1.266-3,3.188-3.014,5.02-.014,1.54,1.263,2.212,2.435,2.881l3.878,2.214-.405-3.141c-1.741,1.634-3.524,3.262-5.119,5.042A4.042,4.042,0,0,0,46.87,113a7.579,7.579,0,0,0,1.114,2.8q3.195,6.2,6.546,12.32c4.5,8.256,9.155,16.429,13.854,24.575,1.286,2.229,4.744.217,3.454-2.019Z"/><path class="c" d="M84.477,106.137c-2.828,0-5.655-.06-8.483-.061a2,2,0,0,0,0,4c2.828,0,5.655.059,8.483.061a2,2,0,0,0,0-4Z"/><path class="c" d="M84.191,102.31c-.334,1.418-.556,2.859-.881,4.279a10.094,10.094,0,0,0-.386,2.962c.11,1.523.371,3.049.56,4.563.74,5.941,1.481,11.882,2.175,17.828a2.062,2.062,0,0,0,2,2,2.012,2.012,0,0,0,2-2c-.682-5.845-1.409-11.685-2.138-17.524-.2-1.57-.441-3.144-.58-4.72a6.311,6.311,0,0,1,.226-2.045c.325-1.421.547-2.861.881-4.28.589-2.5-3.267-3.572-3.857-1.063Z"/><path class="c" d="M74.55,132.352c.851-6,1.717-11.994,2.545-18,.21-1.527.5-3.072.606-4.612a9.4,9.4,0,0,0-.386-2.954,31.5,31.5,0,0,0-1.466-4.634,2.012,2.012,0,0,0-2.736-.717,2.05,2.05,0,0,0-.718,2.736,23.473,23.473,0,0,1,1.168,4.1,5.016,5.016,0,0,1,.115,1.679c-.159,1.508-.355,2.73-.571,4.283-.79,5.687-1.608,11.369-2.414,17.053a2.067,2.067,0,0,0,1.4,2.46,2.015,2.015,0,0,0,2.461-1.4Z"/><path class="c" d="M65.453,85.174c-1.061,1.2-2.041,2.469-3.053,3.711a9.891,9.891,0,0,0-2.366,3.827c-.513,2.1.386,3.571,1.457,5.234q1.856,2.88,3.977,5.574a20.92,20.92,0,0,0,4.706,4.676,2.048,2.048,0,0,0,2.737-.718c2.49-3.327,4.829-6.791,7.576-9.906a2.039,2.039,0,0,0-.405-3.141c-.248-.178-.486-.367-.728-.553.538.413-.272-.211-.4-.312-.249-.193-.5-.387-.744-.58q-2.012-1.571-4.016-3.149c-1.973-1.551-3.958-3.088-5.912-4.663a2.06,2.06,0,0,0-2.828,0,2.015,2.015,0,0,0,0,2.829c4.144,3.34,8.286,6.778,12.61,9.882l-.405-3.141c-2.972,3.37-5.511,7.122-8.2,10.715l2.736-.717a10.922,10.922,0,0,1-1.694-1.5c-.666-.689-1.29-1.418-1.891-2.164-1.185-1.47-2.3-3.071-3.349-4.673-.377-.575-.748-1.154-1.1-1.742-.105-.174-.219-.347-.311-.528a.936.936,0,0,1-.093-.17c.125.5.125-.159.129-.168a4.944,4.944,0,0,1,.564-1.143c.377-.5.8-.965,1.192-1.451.869-1.078,1.727-2.167,2.644-3.2a2.048,2.048,0,0,0,0-2.829A2.02,2.02,0,0,0,65.453,85.174Z"/><path class="c" d="M91.672,152.69c4.7-8.146,9.352-16.319,13.855-24.575q3.339-6.125,6.545-12.32a7.575,7.575,0,0,0,1.114-2.8,4.027,4.027,0,0,0-1.328-3.071c-1.606-1.773-3.376-3.406-5.119-5.042l-.405,3.141,3.674-2.1c1.152-.657,2.61-1.319,2.646-2.862.043-1.89-1.835-3.856-3.021-5.156a49.55,49.55,0,0,0-9.8-7.984,2.015,2.015,0,0,0-2.938,1.2c-1.838,8.139-4.121,16.189-6.369,24.222-2.663,9.515-5.4,19.014-8.378,28.436-1.066,3.373-2.116,6.776-3.439,10.059a2.014,2.014,0,0,0,1.4,2.461,2.051,2.051,0,0,0,2.461-1.4c2.857-7.088,4.876-14.574,7.042-21.892q4.287-14.489,8.189-29.09c1.036-3.9,2.067-7.8,2.956-11.735l-2.938,1.2a53.048,53.048,0,0,1,6.125,4.59,34.663,34.663,0,0,1,2.865,2.768,15.339,15.339,0,0,1,1.128,1.355c.171.238.334.484.485.734.108.178.26.783.237.239l.273-1.009-.167.257.718-.718c-1.632,1.106-3.45,2-5.163,2.975a2.018,2.018,0,0,0-.4,3.141c1.631,1.531,3.244,3.079,4.791,4.7.185.2.372.4.562.589l-.026-.429a7.5,7.5,0,0,1-.828,1.611q-.735,1.423-1.479,2.843-2.94,5.606-6,11.151c-4.147,7.551-8.412,15.036-12.717,22.5-1.288,2.234,2.167,4.251,3.454,2.019Z"/><path class="c" d="M91.775,88c.918,1.038,1.775,2.127,2.644,3.2a8.22,8.22,0,0,1,1.746,2.567c.023.071.067.545.089.282.012-.156.019-.051-.025.051a4.854,4.854,0,0,1-.329.56c-.355.588-.726,1.167-1.1,1.742-1.026,1.565-2.118,3.138-3.271,4.575-.625.78-1.274,1.544-1.969,2.262-.3.309-.606.611-.927.9-.147.131-.3.262-.45.384.3-.237-.257.175-.317.214l2.737.717c-2.69-3.593-5.229-7.345-8.2-10.715l-.405,3.141c4.325-3.1,8.467-6.542,12.61-9.882a2.013,2.013,0,0,0,0-2.829,2.048,2.048,0,0,0-2.828,0c-1.954,1.575-3.939,3.112-5.911,4.663q-2.007,1.578-4.016,3.149l-.744.58c-.14.108-.942.727-.4.312-.242.186-.481.375-.728.553a2.038,2.038,0,0,0-.405,3.141c2.747,3.115,5.085,6.579,7.576,9.906a2.039,2.039,0,0,0,2.736.718,20.879,20.879,0,0,0,4.706-4.676q2.123-2.689,3.977-5.574c1.071-1.664,1.97-3.132,1.457-5.234a9.929,9.929,0,0,0-2.366-3.827c-1.011-1.242-1.991-2.51-3.053-3.711A2,2,0,0,0,91.775,88Z"/><path class="c" d="M80.547,406.265c5.6,1.406,11.654,1.544,17.4,1.7a59.614,59.614,0,0,0,19.2-2.518,2.062,2.062,0,0,0,1.468-1.929c1.013-24.953,1.839-49.913,2.661-74.873.836-25.356,1.681-50.711,2.712-76.06.228-5.589.43-11.178.64-16.767.1-2.575-3.9-2.571-4,0-.634,16.889-1.325,33.775-1.925,50.666-.885,24.921-1.659,49.846-2.517,74.768q-.727,21.135-1.571,42.266l1.469-1.928a56.039,56.039,0,0,1-18.137,2.375c-5.394-.149-11.075-.24-16.336-1.56-2.5-.626-3.562,3.23-1.063,3.857Z"/><path class="c" d="M80.543,402.411c-5.263,1.317-10.945,1.4-16.341,1.553a56.018,56.018,0,0,1-18.139-2.373l1.468,1.928c-1.007-24.862-1.831-49.73-2.652-74.6-.833-25.253-1.674-50.507-2.695-75.753q-.351-8.673-.678-17.346c-.1-2.566-4.1-2.579-4,0,.656,16.988,1.345,33.976,1.948,50.966.88,24.828,1.653,49.66,2.508,74.489q.727,21.123,1.569,42.243A2.066,2.066,0,0,0,45,405.448a59.6,59.6,0,0,0,19.2,2.516c5.747-.157,11.8-.293,17.4-1.695,2.5-.625,1.439-4.484-1.063-3.858Z"/><path class="c" d="M79.075,257.941q.014,8.669.006,17.337,0,16.617,0,33.235,0,19.476,0,38.953,0,17.414,0,34.825,0,10.4,0,20.79v1.1c0,2.574,4,2.578,4,0q0-9.165,0-18.33l0-33.746q0-19.491,0-38.982,0-17.188,0-34.375,0-9.929-.005-19.857c0-.315,0-.631,0-.946-.005-2.574-4.005-2.578-4,0Z"/><path class="c" d="M52.73,95.945A133.005,133.005,0,0,0,28.038,107.8c-2.189,1.346-.182,4.807,2.019,3.454A127.907,127.907,0,0,1,53.794,99.8c2.4-.864,1.367-4.731-1.064-3.857Z"/><path class="c" d="M123.884,124.281c-.99,13.75-1.88,27.518-1.953,41.309-.013,2.574,3.987,2.577,4,0,.073-13.791.963-27.559,1.953-41.309.185-2.568-3.815-2.557-4,0Z"/><path class="c" d="M150.352,167.11c-2.017-13.208-4.945-26.233-7.746-39.29-1.5-6.969-2.687-13.911-7.27-19.625-3.261-4.067-7.983-6.708-12.718-8.712-5.81-2.457-11.811-4.4-17.7-6.658a2.015,2.015,0,0,0-2.46,1.4,2.045,2.045,0,0,0,1.4,2.461c4.971,1.9,10.024,3.586,14.975,5.545a47.136,47.136,0,0,1,6.042,2.756c1.153.656,2.294,1.341,3.4,2.069.219.144.437.289.652.439a1.855,1.855,0,0,1,.313.229,21,21,0,0,1,1.8,1.65c4.8,4.912,5.988,11.488,7.368,17.95,1.422,6.653,2.9,13.3,4.279,19.957,1.439,6.934,2.733,13.9,3.8,20.9a2.014,2.014,0,0,0,2.46,1.4,2.051,2.051,0,0,0,1.4-2.461Z"/><path class="a" d="M6.09,133.631a30.205,30.205,0,0,0-2.259-3.822,9.049,9.049,0,0,1-1.87-5.724,10.5,10.5,0,0,1,.9-3.544c2.078-3.229,3.873-6.051,6.04-8.79a22.973,22.973,0,0,1,1.676-1.827,5.223,5.223,0,0,1,3.624-1.5,4.344,4.344,0,0,1,3.117,1.719c2.845.9,3.426-.883,4.689-1.875a4.92,4.92,0,0,1,4.82-.415,12.284,12.284,0,0,1,4.018,3.032A6.921,6.921,0,0,1,32.6,114.4a2.6,2.6,0,0,1-.768,2.32A4.187,4.187,0,0,1,28.6,117.9c.948,1.926,1.65,3.355,1.65,3.355a4.8,4.8,0,0,1,.371,2.024,3.318,3.318,0,0,1-.058.833,3.56,3.56,0,0,1-.348.82c-1.287,2.439-3.634,5.318-2.545,8.277,2.683,7.776,2.314,11.655-.208,13.854a18.3,18.3,0,0,1-6.908,3.676c-.707.147-3.962.7-4.619.4-1.292-.592-2.548-.884-3.5-2.035a8.849,8.849,0,0,1-1.58-3.314c-.394-1.426-1.6-4.956-2.51-7.254A53.113,53.113,0,0,0,6.09,133.631Z"/><path class="c" d="M19.216,109.449c-1.938-3.82-7.061-3.623-9.9-1.075-3.146,2.821-5.4,6.839-7.663,10.359A10.629,10.629,0,0,0,.984,128.9c.709,1.578,1.861,2.945,2.7,4.462s1.605,3.07,2.3,4.656c1.285,2.953,2.139,6.047,3.18,9.084a8.43,8.43,0,0,0,7.925,6.11,18.774,18.774,0,0,0,8.669-2.518c2.5-1.449,4.79-3.3,5.477-6.232.856-3.657-.257-7.635-1.4-11.1a4.373,4.373,0,0,1-.2-3.039,14.043,14.043,0,0,1,1.369-2.735,11.691,11.691,0,0,0,1.494-2.948,6.849,6.849,0,0,0-.314-3.92,2.062,2.062,0,0,0-2.46-1.4,2.014,2.014,0,0,0-1.4,2.46,2.955,2.955,0,0,1,.167,2.136,13.724,13.724,0,0,1-1.144,1.993,12.919,12.919,0,0,0-1.9,5c-.192,1.789.52,3.365,1.017,5.042a24.967,24.967,0,0,1,1,4.549,9.193,9.193,0,0,1-.078,2.893,3.725,3.725,0,0,1-.9,1.835,13.635,13.635,0,0,1-6.74,3.631,22.508,22.508,0,0,1-2.905.358c-.117.007-.72-.109-.25.024.142.041-.814-.337-.817-.339a4.541,4.541,0,0,1-1.858-1.14,9.739,9.739,0,0,1-1.4-3.429c-.455-1.461-.96-2.908-1.484-4.346a62.3,62.3,0,0,0-3.542-8.026c-1.332-2.5-3.716-4.875-3.515-7.886a7.313,7.313,0,0,1,1.4-3.727c1.123-1.743,2.251-3.483,3.455-5.172,1.032-1.447,2.192-3.315,3.725-4.276a2.182,2.182,0,0,1,3.223.558c1.165,2.3,4.617.274,3.454-2.019Z"/><path class="c" d="M13.666,120.533c.724-.994,1.47-1.973,2.217-2.95l.661-.861c.286-.371-.273.352.011-.014q.156-.2.314-.4.523-.675,1.056-1.345c.207-.26.409-.53.636-.773.058-.063.123-.117.182-.179-.22.231,0,.02.132-.079.2-.1.186-.1-.051,0a2.932,2.932,0,0,1,.292-.1q.338-.07-.087-.012a2.863,2.863,0,0,1,.595,0c-.284-.04-.315-.038-.09.008.1.026.193.056.287.091-.242-.108-.263-.111-.061-.012.145.1.376.252.118.041a4.792,4.792,0,0,1,.45.44c-.333-.353.058.133.124.229.1.2.095.178-.009-.069.036.092.069.185.1.28s.052.188.073.283q.061.337-.009-.107c.061.037,0,.486-.008.555a2.008,2.008,0,0,0,2,2,2.053,2.053,0,0,0,2-2,5.582,5.582,0,0,0-2.421-4.851,4.955,4.955,0,0,0-5.388-.187,7.5,7.5,0,0,0-1.933,1.917q-1.206,1.527-2.384,3.076c-.762.994-1.521,1.991-2.259,3a2.007,2.007,0,0,0,.717,2.736,2.058,2.058,0,0,0,2.737-.717Z"/><path class="c" d="M19.733,122.288a35.977,35.977,0,0,1,3.315-3.513c.294-.268.594-.528.9-.786l.388-.33.2-.174c.055-.047.33-.3.085-.078s-.025.05,0,.022c.225-.261-.059.147-.142.055.008.009.613-.152.224-.067-.355.077.189.044.25.026-.27.079-.356-.079-.138-.012.105.032.217.069.323.09.2.041-.146-.053-.163-.076a1.538,1.538,0,0,0,.241.126,1.549,1.549,0,0,0,.229.148c.027.007-.363-.2-.173-.12.063.025.226.274.038.019-.175-.239-.04-.053-.011,0,.043.075.09.147.131.224l.061.117q.11.239.005.007l-.051-.115c.023.063.044.127.063.191s.032.128.052.191c.1.336-.034-.1-.006-.153a1.415,1.415,0,0,0,.014.242c.009.07-.032.287.019-.04.054-.356-.006-.031-.032.057-.007.025-.048.208-.071.215q.141-.32.046-.119c-.023.049-.047.1-.072.143a13.522,13.522,0,0,1-1.02,1.634c-.051.071-.108.139-.157.211.387-.568.136-.177.031-.047-.181.227-.366.45-.552.673-.814.974-1.653,1.928-2.49,2.883a2,2,0,1,0,2.829,2.829c.862-.984,1.727-1.967,2.564-2.973a15.018,15.018,0,0,0,2.621-4.027,4.822,4.822,0,0,0-2.049-5.642,5.044,5.044,0,0,0-3.33-.6,5.141,5.141,0,0,0-2.563,1.448,37.181,37.181,0,0,0-4.436,4.49,2.045,2.045,0,0,0,0,2.829,2.024,2.024,0,0,0,2.828,0Z"/><path class="c" d="M21.264,111.644a9.767,9.767,0,0,0,1.294-1.124c.139-.145.275-.3.419-.437.094-.095.192-.186.293-.275q-.189.135-.022.021c.069-.046.625-.338.258-.181a3.493,3.493,0,0,1,.529-.167c.121-.03.556-.068.2-.046.253-.016.5-.007.753-.006.419,0-.224-.077.221.026.186.043.37.082.553.137.121.036.24.076.358.119q-.219-.1-.024-.012a6.755,6.755,0,0,1,.628.322,8.6,8.6,0,0,1,1.008.67c-.228-.177.328.285.38.332q.229.2.451.413c.319.3.635.609.933.931.067.07.131.141.193.215-.109-.151-.094-.131.045.062.111.167.219.333.319.507s.193.354.277.537c-.129-.281.135.392.157.465.058.191.108.385.148.581.045.213.053.258.022.134s-.032-.078-.019.136c.15-.519-.217.386-.055.1.152-.265-.434.48-.052.072-.081.087-.2.186-.275.28-.227.285.315-.178-.013.01-.178.1-.349.209-.533.3.316-.161-.006,0-.161.043-.037.011-.608.13-.205.074a4.105,4.105,0,0,1-.822.008,2.012,2.012,0,0,0-2,2,2.046,2.046,0,0,0,2,2,6.108,6.108,0,0,0,4.837-1.889,4.833,4.833,0,0,0,1.279-3,7.244,7.244,0,0,0-.772-3.15,11.523,11.523,0,0,0-3.549-4.181,9.205,9.205,0,0,0-5.612-2.254,6.527,6.527,0,0,0-3.244.81,6.443,6.443,0,0,0-1.317,1.026c-.192.189-.37.39-.558.583-.07.072-.141.144-.213.214-.039.037-.364.309-.132.138a2.051,2.051,0,0,0-.718,2.737,2.023,2.023,0,0,0,2.737.717Z"/><path class="a" d="M47.275,170.189c2.945-2.43,31.836-24.075,37.591-27.783,12.408,16.068,33.993,47.079,37.641,52.517C117.6,198.88,90.262,219.6,84.384,223.76c-5.245-7.282-31.13-44.016-37.109-53.571"/><path class="c" d="M48.689,171.6c.2-.164.4-.324.6-.484.135-.107.27-.212.406-.318s.639-.5.229-.179q1.386-1.07,2.781-2.126,4-3.041,8.028-6.048c6.151-4.605,12.319-9.191,18.547-13.692,2.173-1.57,4.338-3.168,6.59-4.624l-2.736-.717c11.452,14.842,22.219,30.238,32.909,45.634,1.588,2.286,3.18,4.571,4.732,6.882l.313-2.423c-9.937,8-20.759,15.959-31.252,23.776-2.144,1.6-4.285,3.2-6.467,4.748l2.737.717c-4.448-6.177-8.813-12.415-13.183-18.647-5.881-8.386-11.745-16.785-17.507-25.253-2.176-3.2-4.364-6.393-6.419-9.67-1.364-2.176-4.826-.171-3.454,2.019,4.329,6.906,9.067,13.572,13.708,20.271q8.619,12.441,17.36,24.8c2.006,2.839,4.01,5.679,6.041,8.5a2.028,2.028,0,0,0,2.736.718c10.936-7.746,21.53-16.027,32.154-24.191,2.134-1.64,4.278-3.271,6.374-4.959a2,2,0,0,0,.313-2.424c-9.134-13.6-18.722-26.935-28.4-40.157-3.038-4.152-6.1-8.286-9.245-12.359a2.045,2.045,0,0,0-2.737-.718c-4.974,3.217-9.7,6.867-14.462,10.381q-9.074,6.691-18.062,13.5c-1.833,1.39-3.694,2.757-5.471,4.218-1.99,1.636.854,4.452,2.828,2.829Z"/><path class="a" d="M90.066,185.6c-1.738-1.742-3.332-2.277-6.272-3.486a38.223,38.223,0,0,0-4.316-.926c-1.883-.285-3.27-.574-5.169-.722-2.512-.2-3.969-.433-5,.606a2.889,2.889,0,0,0-.77,2.32c.193,3.465,6.319,5.491,9.176,7.514a32.987,32.987,0,0,1-8.337,2.585,47.417,47.417,0,0,1-5.2-1.652,3.614,3.614,0,0,0-3.872,1.513,3.275,3.275,0,0,0,.794,4.087,13.294,13.294,0,0,0,1.961,1.23,6.714,6.714,0,0,0,.38,5.012,8.232,8.232,0,0,0,2.979,3.453,17.173,17.173,0,0,0,4.236,8.1c.873.98,4.009,1.811,4.968,1.595,8.237-1.861,14.755-6.313,21.283-11.669"/><path class="c" d="M76.71,189.182a31.586,31.586,0,0,1-7.859,2.384h1.063a42.816,42.816,0,0,1-5.039-1.592,5.505,5.505,0,0,0-6.129,2.137,5.292,5.292,0,0,0,.624,6.451c1.661,1.735,4.347,2.729,6.611,3.339,2.488.67,3.55-3.188,1.063-3.857a14.707,14.707,0,0,1-3.407-1.336,8.019,8.019,0,0,1-1.282-.82,1.207,1.207,0,0,1-.4-.675,1.065,1.065,0,0,1,.083-.854c.069-.141.192-.249.569-.445.739-.385.994-.153,1.844.153q1.4.5,2.826.93c.41.123.822.247,1.238.346a5.047,5.047,0,0,0,2.136-.036,37.036,37.036,0,0,0,8.08-2.671,2.013,2.013,0,0,0,.717-2.737,2.052,2.052,0,0,0-2.736-.717Z"/><path class="c" d="M61.142,198.142a9.658,9.658,0,0,0,4.278,10.722l-.92-1.195c.887,3.311,2.337,6.742,4.9,9.132a8.62,8.62,0,0,0,4.087,1.844,9.3,9.3,0,0,0,4.738-.409c7.592-2.182,14.064-6.711,20.108-11.655,1.993-1.631-.851-4.446-2.829-2.828a71.816,71.816,0,0,1-10.128,7.136,38.9,38.9,0,0,1-5.445,2.575q-1.466.548-2.972.972c-.477.134-.958.253-1.438.374s-.557.127-.234.06a4.042,4.042,0,0,1-.453-.023,5.14,5.14,0,0,1-3.3-1.651,14.214,14.214,0,0,1-2.505-4.359,15.868,15.868,0,0,0-.873-2.709c-.46-.786-1.482-1.174-2.044-1.936A5.462,5.462,0,0,1,65,199.206c.681-2.486-3.176-3.547-3.857-1.064Z"/><path class="c" d="M91.48,184.189a18.018,18.018,0,0,0-7.56-4.114,52.406,52.406,0,0,0-9.805-1.622c-2.884-.238-6.312-.3-7.348,3.094-.852,2.791.72,5.187,2.849,6.824,2.2,1.694,4.819,2.69,7.094,4.265a2.018,2.018,0,0,0,2.736-.718,2.041,2.041,0,0,0-.717-2.736c-2.061-1.427-4.439-2.336-6.476-3.8a7.614,7.614,0,0,1-1.1-.962,2.309,2.309,0,0,1-.581-.945c-.175-.743.112-1.126.815-1.169a23.6,23.6,0,0,1,4.633.351c1.7.241,3.419.509,5.1.866,2.648.562,5.558,1.567,7.533,3.5,1.842,1.8,4.673-1.025,2.829-2.828Z"/><path class="d" d="M123.656,165.72c-9.779,4.118-23.913,10.236-35.041,14.85,1.323,3.312,8.81,21,11.1,27.634a195.659,195.659,0,0,0,38.392-15.55c4.118-2.253,8.291-7.651,9.578-10.567,1.369-3.1,1.353-8.367.736-14.445"/><path class="c" d="M123.125,163.792c-9.757,4.109-19.472,8.315-29.23,12.421q-1.711.72-3.425,1.436c-1.311.547-2.819.933-3.344,2.412-.558,1.573.427,3.159,1.022,4.595q2.306,5.559,4.59,11.127c1.515,3.715,3.03,7.435,4.421,11.2a4.445,4.445,0,0,0,1.6,2.549,3.978,3.978,0,0,0,3.416.049c1.88-.554,3.749-1.146,5.609-1.763a192.526,192.526,0,0,0,30.1-12.768A27.473,27.473,0,0,0,149.023,183.9c2.567-4.842,1.922-11.008,1.4-16.253a2.056,2.056,0,0,0-2-2,2.014,2.014,0,0,0-2,2,44.362,44.362,0,0,1,.169,10.873,14.41,14.41,0,0,1-3.434,6.958,24.565,24.565,0,0,1-7.912,6.451q-5.286,2.8-10.767,5.2a198.011,198.011,0,0,1-19.5,7.4q-1.861.6-3.735,1.155a5.145,5.145,0,0,0-.905.264c.018-.092.779.855.884.531.021-.064-.107-.263-.121-.332a12.064,12.064,0,0,0-.634-1.691c-1-2.618-2.04-5.219-3.091-7.816q-1.862-4.6-3.765-9.174l-1.558-3.759q-.327-.786-.652-1.574-.147-.356-.293-.711a1.22,1.22,0,0,0-.1-.241c-.169-.227.054-.25-.026-.057l-.514.883a6.817,6.817,0,0,1,1.815-.815q1.049-.438,2.1-.879,2.193-.922,4.384-1.849,4.5-1.9,8.986-3.82c5.477-2.336,10.95-4.683,16.438-7a2.067,2.067,0,0,0,1.4-2.46,2.012,2.012,0,0,0-2.46-1.4Z"/></svg>